<?xml version="1.0" standalone="no"?>
<!DOCTYPE svg PUBLIC "-//W3C//DTD SVG 20010904//EN"
 "http://www.w3.org/TR/2001/REC-SVG-20010904/DTD/svg10.dtd">
<svg version="1.0" xmlns="http://www.w3.org/2000/svg"
 width="512.000000pt" height="512.000000pt" viewBox="0 0 512.000000 512.000000"
 preserveAspectRatio="xMidYMid meet">
<metadata>
Created by potrace 1.14, written by Peter Selinger 2001-2017
</metadata>
<g transform="translate(0.000000,512.000000) scale(0.100000,-0.100000)"
fill="#000000" stroke="none">
<path d="M0 2560 l0 -2560 2560 0 2560 0 0 2560 0 2560 -2560 0 -2560 0 0
-2560z m4122 1873 l38 -37 -1 -316 -1 -315 -37 -32 -38 -33 -533 0 c-338 0
-539 -4 -551 -11 -19 -10 -19 -50 -19 -1486 l1 -1476 -33 -34 -32 -33 -355 0
-356 1 -37 34 -38 35 -2 1483 -3 1482 -550 3 -550 2 -32 32 -33 32 0 315 0
315 37 38 37 38 1525 0 1525 0 38 -37z"/>
</g>
</svg>
